<?xml version="1.0" standalone="no"?>
<!DOCTYPE svg PUBLIC "-//W3C//DTD SVG 1.1//EN" "http://www.w3.org/Graphics/SVG/1.1/DTD/svg11.dtd" >
<svg xmlns="http://www.w3.org/2000/svg">
<metadata></metadata>
<defs>
<font id="aliencaretregular" horiz-adv-x="1014" >
<font-face units-per-em="2048" ascent="1638" descent="-410" />
<missing-glyph horiz-adv-x="508" />
<glyph horiz-adv-x="2048" />
<glyph horiz-adv-x="2048" />
<glyph unicode="&#xd;" horiz-adv-x="508" />
<glyph unicode=" "  horiz-adv-x="508" />
<glyph unicode="&#x09;" horiz-adv-x="508" />
<glyph unicode="&#xa0;" horiz-adv-x="508" />
<glyph unicode="!" horiz-adv-x="672" d="M207 136q0 15 16 31l82 84q15 14 29 14q13 0 31 -16l80 -86q12 -16 12 -29q0 -15 -14 -31l-80 -88q-20 -20 -29 -20q-16 0 -29 14l-88 101q-10 13 -10 26zM264 1364q0 46 21 69t62 23q42 0 62.5 -23t20.5 -69l-80 -1036h-37z" />
<glyph unicode="&#x22;" horiz-adv-x="672" d="M101 1500q0 37 20.5 57t59.5 20t60.5 -19.5t21.5 -56.5q0 -8 -4 -34l-62 -359h-30l-62 359q-4 23 -4 33zM413 1500q0 37 20.5 57t59.5 20t60.5 -19.5t21.5 -56.5q0 -8 -4 -34l-62 -359h-30l-62 359q-4 23 -4 33z" />
<glyph unicode="#" horiz-adv-x="1336" d="M117 472l30 98h271l86 290h-295l29 97h295l140 477h93l-141 -477h242l142 477h92l-141 -477h259l-29 -97h-259l-83 -290h279l-30 -98h-280l-140 -472h-92l139 472h-240l-142 -472h-92l140 472h-273zM511 569h242l86 290h-243z" />
<glyph unicode="$" d="M113 1079q0 166 125 271q105 88 266 102v100h73v-102q68 -8 141 -35q10 -6 19 -6q25 0 41 45h50l103 -282h-49q-60 134 -168 179q-74 30 -137 39v-540q241 -93 322.5 -183t81.5 -264q0 -197 -119.5 -300t-284.5 -120v-239h-73v237q-188 3 -266 38q-10 6 -19 6 q-25 0 -41 -45h-50v331h49q50 -183 152.5 -226t174.5 -43v635q-214 67 -299 153q-92 91 -92 249zM219 1139q0 -98 55 -153q52 -54 230 -113v520q-119 -5 -199 -72q-86 -73 -86 -182zM577 45q125 17 211.5 96t86.5 219q0 116 -69 183q-62 59 -229 112v-610z" />
<glyph unicode="%" horiz-adv-x="1610" d="M62 1080q0 100 52 190.5t144.5 139.5t190.5 49t190.5 -49t144.5 -139.5t52 -190.5q0 -99 -50.5 -188.5t-143 -140t-193.5 -50.5q-100 0 -192.5 50.5t-143.5 140t-51 188.5zM202 1128q0 -31 4 -62q13 -92 55.5 -173.5t106.5 -124.5q57 -40 114 -40q7 0 13 1q63 3 115 53 t73 136q13 54 13 111q0 32 -4 65q-12 93 -56 175.5t-107 124.5q-58 38 -115 38h-11q-61 -3 -113 -52t-73 -135q-15 -58 -15 -117zM297 -29l940 1461h84l-938 -1461h-86zM774 359q0 99 52 189.5t144.5 140t190.5 49.5q97 0 190 -49.5t145 -140t52 -189.5q0 -100 -50.5 -189.5 t-143 -139.5t-193.5 -50t-193 50t-143 139.5t-51 189.5zM914 406q0 -31 4 -62q13 -92 55.5 -173.5t106.5 -124.5q59 -39 116 -39h11q63 3 115 53t73 136q13 54 13 111q0 32 -4 65q-12 93 -56 175.5t-107 124.5q-58 38 -115 38h-11q-61 -3 -113 -52t-73 -135 q-15 -58 -15 -117z" />
<glyph unicode="&#x26;" horiz-adv-x="1683" d="M152 520q0 161 76 266.5t225 151.5q-42 61 -62.5 116t-20.5 111q0 105 77 197t182 92q68 0 142 -39q9 -6 18 -6q23 0 38 45h46l96 -281h-46q-55 133 -155 178q-85 37 -141 37q-65 0 -106 -45.5t-41 -117.5q0 -131 102 -267l531 -670q98 146 121 244q17 78 17 130 q0 97 -62 97h-90v50h443v-50h-90q-95 0 -145 -227q-31 -132 -155 -292q109 -136 248 -136h16q143 17 192 128l49 -1l-103 -231h-160q-56 0 -139 25t-167 132q-67 -74 -175 -123.5t-241 -49.5q-229 0 -374.5 150.5t-145.5 385.5zM256 589q0 -91 35.5 -181.5t101.5 -164.5 q72 -83 165 -127t194 -44q88 0 169 33.5t130 90.5l-554 683q-118 0 -179.5 -86t-61.5 -204z" />
<glyph unicode="'" horiz-adv-x="346" d="M101 1500q0 37 20.5 57t59.5 20t60.5 -19.5t21.5 -56.5q0 -8 -4 -34l-62 -359h-30l-62 359q-4 23 -4 33z" />
<glyph unicode="(" horiz-adv-x="602" d="M0 523v46q0 106 162 106h369q68 0 68 -68v-531q0 -76 -76 -76q-266 0 -504 447zM0 865v46q0 148 276 418q142 105 217 105h57q49 -25 49 -76v-531q0 -68 -68 -68h-388q-143 17 -143 106z" />
<glyph unicode=")" horiz-adv-x="600" d="M0 46v590q15 38 65 38h391q142 -15 142 -114v-28q0 -173 -304 -448q-121 -84 -199 -84h-49zM0 798v571q0 65 65 65h38q182 0 419 -342q76 -118 76 -190v-28q0 -114 -171 -114h-362q-50 0 -65 38z" />
<glyph unicode="*" horiz-adv-x="1024" d="M218 1333q0 17 6 36q11 35 36 53q17 12 34 12q9 0 18 -3q20 -6 74 -62q47 -49 112 -75q-4 71 -37 130q-37 66 -37 84q0 32 23.5 51.5t62.5 19.5q37 0 61.5 -18t24.5 -47q0 -21 -36 -89q-33 -61 -37 -130q66 25 113 75q51 55 69 61q11 3 21 3q18 0 35 -10q26 -17 38 -53 q6 -19 6 -36q0 -15 -4 -28q-10 -30 -38 -38q-6 -2 -19 -2q-25 0 -76 9q-28 5 -55 5q-41 0 -81 -11q44 -55 105 -83q68 -32 79 -47q13 -18 13 -38q0 -9 -2 -17q-8 -30 -39 -53q-29 -22 -59 -22q-1 0 -1 1q-31 0 -48 23q-12 17 -22 94q-10 67 -47 125q-38 -58 -46 -124 q-9 -75 -20 -90q-19 -25 -49 -27h-5q-28 0 -57 21q-30 21 -39 51q-4 10 -4 20q0 17 11 32q13 17 83 51q61 29 105 82q-41 11 -80 11q-27 0 -53 -5q-54 -11 -78 -11q-9 0 -14 2q-30 9 -41 38q-6 13 -6 29z" />
<glyph unicode="+" d="M87 647v140h350v369l1 1h139v-370h349l1 -1v-139h-350v-370h-140v370h-350z" />
<glyph unicode="," horiz-adv-x="557" d="M119 91v42l119 125q44 0 88.5 -65.5t44.5 -151.5q0 -109 -71 -226.5t-139 -117.5v43q73 43 87 190q0 119 -129 161z" />
<glyph unicode="-" horiz-adv-x="670" d="M116 437v83q0 29 41 29h356q41 0 41 -29v-83q0 -28 -40 -28h-358q-40 0 -40 28z" />
<glyph unicode="." horiz-adv-x="557" d="M129 136q0 15 16 31l82 84q15 14 29 14q13 0 31 -16l80 -86q12 -16 12 -29q0 -15 -14 -31l-80 -88q-20 -20 -29 -20q-16 0 -29 14l-88 101q-10 13 -10 26z" />
<glyph unicode="/" horiz-adv-x="569" d="M13 -50l541 1484h80l-541 -1484h-80z" />
<glyph unicode="0" horiz-adv-x="1056" d="M0 400q211 128 247 128v-9q0 -203 153 -408q63 -52 102 -52h26q202 0 272 469q31 0 247 -128v-9q-182 -391 -503 -391h-60q-256 0 -450 314zM0 919q186 383 494 383h67q220 0 410 -247q51 -71 76 -153q-218 -128 -247 -128v9q0 215 -170 425l-86 35h-42q-176 0 -265 -469 h-7q-230 114 -230 145z" />
<glyph unicode="1" horiz-adv-x="1049" d="M0 400q211 128 247 128v-9q0 -203 153 -408q63 -52 102 -52h26q202 0 272 469q31 0 247 -128v-9q-182 -391 -503 -391h-60q-256 0 -450 314zM0 919q186 383 494 383h67q220 0 410 -247q51 -71 76 -153q-218 -128 -247 -128v9q0 215 -170 425l-86 35h-42q-176 0 -265 -469 h-7q-230 114 -230 145zM264 595v112q19 42 84 42h349q86 0 86 -85v-26q0 -66 -34 -77h-450z" />
<glyph unicode="2" horiz-adv-x="1049" d="M0 400q211 128 247 128v-9q0 -203 153 -408q63 -52 102 -52h26q202 0 272 469q31 0 247 -128v-9q-182 -391 -503 -391h-60q-256 0 -450 314zM0 919q186 383 494 383h67q220 0 410 -247q51 -71 76 -153q-218 -128 -247 -128v9q0 215 -170 425l-86 35h-42q-176 0 -265 -469 h-7q-230 114 -230 145zM264 595v112q19 42 84 42h349q86 0 86 -85v-26q0 -66 -34 -77h-450zM425 306v69q0 67 86 67h25q65 0 77 -34v-136q-8 -25 -52 -25h-101q-35 13 -35 59z" />
<glyph unicode="3" horiz-adv-x="1049" d="M0 400q211 128 247 128v-9q0 -203 153 -408q63 -52 102 -52h26q202 0 272 469q31 0 247 -128v-9q-182 -391 -503 -391h-60q-256 0 -450 314zM0 919q186 383 494 383h67q220 0 410 -247q51 -71 76 -153q-218 -128 -247 -128v9q0 215 -170 425l-86 35h-42q-176 0 -265 -469 h-7q-230 114 -230 145zM264 595v112q19 42 84 42h349q86 0 86 -85v-26q0 -66 -34 -77h-450zM425 902v52q0 76 59 76h94l35 -34v-129q-14 -32 -60 -32h-59q-69 0 -69 67z" />
<glyph unicode="4" horiz-adv-x="1056" d="M0 403q212 129 249 129v-10q0 -204 154 -410q63 -52 102 -52h27q202 0 273 472q31 0 249 -129v-10q-183 -393 -507 -393h-60q-258 0 -452 316zM0 925q187 385 497 385h67q222 0 413 -249q52 -71 77 -154q-220 -129 -249 -129v10q0 216 -171 428l-87 34h-42 q-177 0 -266 -472h-8q-231 116 -231 147zM428 266v67q0 47 34 60h129l25 -25v-137l-25 -25h-129q-34 14 -34 60zM428 977v67q0 46 34 60h129l25 -25v-137l-25 -25h-129q-34 13 -34 60zM557 591v128q11 34 77 34h34q66 0 78 -34v-128l-27 -27h-137z" />
<glyph unicode="5" horiz-adv-x="1042" d="M0 400q210 128 246 128v-9q0 -203 154 -408q63 -52 101 -52h27q202 0 273 469q30 0 246 -128v-9q-182 -391 -502 -391h-61q-255 0 -450 315zM0 919q185 383 494 383h68q220 0 408 -246q54 -70 77 -154q-218 -128 -246 -128v9q0 214 -172 426l-84 34h-44q-175 0 -263 -469 h-7q-231 114 -231 145zM297 621v86q19 42 86 42h34q77 0 77 -59v-95l-35 -33h-127q-35 14 -35 59zM425 263v69q0 45 34 59h128l25 -25v-135l-25 -27h-128q-34 13 -34 59zM425 970v69q0 46 34 59h128l25 -27v-135l-25 -25h-128q-34 14 -34 59zM553 587v128q11 34 76 34h34 q65 0 77 -34v-128l-25 -25h-135z" />
<glyph unicode="6" horiz-adv-x="1049" d="M0 401q211 126 247 126v-7q0 -204 154 -409q63 -52 101 -52h25q204 0 273 468q32 0 247 -126v-10q-182 -391 -502 -391h-60q-257 0 -450 314zM0 918q186 384 493 384h69q218 0 408 -247q52 -69 77 -154q-217 -126 -247 -126v7q0 215 -171 426l-84 35h-43 q-176 0 -264 -468h-8q-230 113 -230 143zM426 596v92q0 62 76 62h35q84 0 84 -69v-60q0 -46 -34 -59h-127z" />
<glyph unicode="7" horiz-adv-x="1056" d="M0 400q211 128 247 128v-9q0 -203 153 -408q63 -52 102 -52h26q202 0 272 469q31 0 247 -128v-9q-182 -391 -503 -391h-60q-256 0 -450 314zM0 919q186 383 494 383h67q220 0 410 -247q51 -71 76 -153q-218 -128 -247 -128v9q0 215 -170 425l-86 35h-42q-176 0 -265 -469 h-7q-230 114 -230 145zM299 511v67q0 60 76 60h307q44 0 59 -33v-128l-27 -25h-383q-32 13 -32 59zM299 707v84q0 46 32 59h129l34 -32v-94q0 -60 -77 -60h-51q-46 0 -67 43zM553 697v128l25 25h136l27 -25v-128q-15 -33 -59 -33h-52q-65 0 -77 33z" />
<glyph unicode="8" horiz-adv-x="1049" d="M0 400q210 128 247 128v-8q0 -203 153 -409q63 -52 103 -52h25q202 0 271 469q33 0 247 -128v-8q-182 -392 -501 -392h-59q-258 0 -452 315zM0 920q185 382 493 382h69q220 0 407 -247q54 -70 77 -153q-216 -128 -247 -128v8q0 216 -170 426l-84 35h-42q-176 0 -264 -469 h-10q-229 113 -229 146zM298 510v69q0 60 77 60h306q46 0 59 -35v-128l-25 -25h-382q-35 14 -35 59zM298 705v87q0 45 35 59h126l34 -35v-93q0 -60 -76 -60h-52q-46 0 -67 42zM426 247v135l25 27h128l25 -27v-135l-25 -25h-128zM553 698v128l26 25h136l25 -25v-128 q-13 -35 -59 -35h-52q-65 0 -76 35z" />
<glyph unicode="9" horiz-adv-x="1056" d="M0 403q212 129 249 129v-10q0 -204 154 -410q63 -52 102 -52h27q202 0 273 472q31 0 249 -129v-10q-183 -393 -507 -393h-60q-258 0 -452 316zM0 925q187 385 497 385h67q222 0 413 -249q52 -71 77 -154q-220 -129 -249 -129v10q0 216 -171 428l-87 34h-42 q-177 0 -266 -472h-8q-231 116 -231 147zM428 266v778q0 46 34 60h129l25 -25v-848l-25 -25h-129q-34 14 -34 60z" />
<glyph unicode=":" horiz-adv-x="557" d="M129 136q0 15 16 31l82 84q15 14 29 14q13 0 31 -16l80 -86q12 -16 12 -29q0 -15 -14 -31l-80 -88q-20 -20 -29 -20q-16 0 -29 14l-88 101q-10 13 -10 26zM129 829q0 15 16 31l82 84q15 14 29 14q13 0 31 -16l80 -86q12 -16 12 -29q0 -15 -14 -31l-80 -88 q-20 -20 -29 -20q-16 0 -29 14l-88 101q-10 13 -10 26z" />
<glyph unicode=";" horiz-adv-x="557" d="M119 91v42l119 125q44 0 88.5 -65.5t44.5 -151.5q0 -109 -71 -226.5t-139 -117.5v43q73 43 87 190q0 119 -129 161zM129 828q0 15 16 31l82 84q15 14 29 14q13 0 31 -16l80 -86q12 -16 12 -29q0 -15 -14 -31l-80 -88q-20 -20 -29 -20q-16 0 -29 14l-88 101q-10 13 -10 26 z" />
<glyph unicode="&#x3c;" d="M87 674v83l840 484v-167l-625 -359l625 -355v-167z" />
<glyph unicode="=" d="M87 491v140h840v-140h-840zM87 803v140h840v-140h-840z" />
<glyph unicode="&#x3e;" d="M87 193v167l625 355l-625 359v167l840 -484v-83z" />
<glyph unicode="?" horiz-adv-x="748" d="M132 1266v64q128 104 242 104q132 0 212 -68t80 -182q0 -69 -32.5 -140t-124.5 -186q-90 -113 -141.5 -187.5t-51.5 -142.5q0 -63 35 -189h-47q-50 138 -50 211q0 109 116.5 312t116.5 309q0 82 -47 129t-130 47q-84 0 -178 -81zM207 136q0 15 16 31l82 84q15 14 29 14 q13 0 31 -16l80 -86q12 -16 12 -29q0 -15 -14 -31l-80 -88q-20 -20 -29 -20q-16 0 -29 14l-88 101q-10 13 -10 26z" />
<glyph unicode="@" horiz-adv-x="2019" d="M100 508q0 242 124 464.5t345.5 342t456.5 119.5q362 0 609 -230t247 -566q0 -270 -176 -439q-175 -168 -346 -170q-63 1 -100.5 18t-61.5 54q-29 -37 -82 -64.5t-133 -27.5q-144 0 -256.5 100.5t-112.5 233.5q1 87 53 166.5t132.5 115t173.5 49.5q67 16 110 42.5 t43 74.5q-2 69 -41 125t-129 56q-72 0 -121.5 -59t-50.5 -125h-45v159q0 20 72 40q73 20 178 20q109 -2 193.5 -64.5t84.5 -157.5v-589q0 -117 94 -117q185 35 267 191.5t82 382.5q-20 335 -232 540q-197 188 -480 188q-205 0 -392.5 -137.5t-269.5 -355.5 q-67 -178 -67 -361q0 -313 129.5 -511.5t305 -290.5t318.5 -92q274 0 575 208v-75q-263 -184 -571 -184q-240 0 -461 122.5t-343 342t-122 461.5zM753 343q0 -107 64 -194t183 -87q97 5 126 167v476q-54 -63 -154 -83q-83 -10 -151 -80t-68 -199z" />
<glyph unicode="A" horiz-adv-x="1152" d="M0 1260v9q17 33 42 33q211 -128 280 -228q0 -336 253 -685h8q255 403 255 719q253 194 288 194l25 -42q0 -478 -323 -888l-126 -127l220 -151v-10l-34 -84q-157 50 -313 151q-264 -151 -322 -151l-25 94q157 100 221 159q-313 290 -372 560q-77 257 -77 447zM553 972v373 q0 64 33 77h130l27 -27v-459l-35 -33h-111q-44 21 -44 69z" />
<glyph unicode="B" horiz-adv-x="1152" d="M3 93q131 52 356 295l-34 44v118q0 35 76 35q-177 377 -177 685l32 25h27q261 -181 261 -221l26 -211q27 5 42 238q242 194 280 194h8l34 -34q0 -282 -177 -676q65 0 76 -35v-118q-19 -34 -44 -34q191 -221 322 -280q38 -15 42 -34q-23 -84 -42 -84q-196 36 -533 339 q-310 -288 -541 -339q-34 55 -34 93z" />
<glyph unicode="C" horiz-adv-x="1130" d="M0 553v128l25 24h451q34 -13 34 -59v-67q0 -59 -59 -59h-417zM205 1201v7q13 94 34 94q434 -145 698 -545q195 -380 195 -732l-25 -25h-34q-264 182 -264 239q0 348 -306 740q-210 199 -298 222z" />
<glyph unicode="D" horiz-adv-x="924" d="M0 1240v33q8 26 51 26q270 -186 270 -237q0 -374 327 -766q96 -90 271 -204v-8l-34 -84q-262 61 -607 421q-278 398 -278 819zM439 885v414l33 33h127q24 -8 24 -51v-421q-14 -33 -59 -33h-66q-59 0 -59 58zM684 903v370q0 45 33 59h125l26 -25v-447l-34 -33h-92 q-58 0 -58 76z" />
<glyph unicode="E" horiz-adv-x="1232" d="M0 25v34q0 350 229 754q266 356 668 482l25 -93q-379 -202 -541 -652q-69 -213 -69 -356q-242 -194 -278 -194h-9zM305 93q369 195 533 627q76 221 76 381q242 194 280 194h8l34 -34q0 -313 -204 -728q-245 -377 -693 -533q-34 55 -34 93z" />
<glyph unicode="F" horiz-adv-x="1379" d="M0 25v34q0 353 230 758q268 358 672 485l24 -94q-380 -203 -543 -655q-69 -214 -69 -358q-243 -195 -280 -195h-9zM452 34q0 494 331 902q300 295 544 366h26q25 -44 25 -102q-275 -136 -442 -427q-170 -344 -170 -578l-255 -195h-34q-21 0 -25 34zM1047 264v425 q4 52 25 52h128q33 -16 33 -60v-392q0 -46 -33 -59h-120z" />
<glyph unicode="G" horiz-adv-x="924" d="M0 25v34q0 351 229 758q269 359 672 485l27 -94q-382 -202 -544 -654q-69 -216 -69 -357q-244 -197 -281 -197h-9zM571 374v384q0 67 67 67h61q44 0 59 -33v-452q-15 -35 -59 -35h-61q-67 0 -67 69z" />
<glyph unicode="H" horiz-adv-x="1335" d="M0 94q329 182 477 494q-171 373 -171 654v35l25 25h10q36 0 279 -196q228 196 274 196h8l34 -35q0 -298 -178 -672q132 -308 475 -501v-10q-14 -84 -33 -84q-253 52 -580 383q-337 -326 -561 -375l-25 -8q-34 56 -34 94z" />
<glyph unicode="I" horiz-adv-x="1086" d="M0 111v33q0 384 262 769l159 159q-180 134 -207 134v8q12 88 33 88q188 -59 285 -144q243 144 310 144l23 -88q-162 -96 -206 -149q250 -175 373 -621q48 -184 48 -333l-25 -23h-31q-247 169 -247 222q0 270 -229 626h-8q-161 -166 -237 -570q0 -115 -66 -144 q-180 -134 -204 -134h-10zM444 71v333q0 61 33 73h118l23 -25v-429q-7 -23 -46 -23h-95q-33 11 -33 71z" />
<glyph unicode="J" horiz-adv-x="1086" d="M0 1242v34l26 26h8q48 0 281 -204q0 -397 349 -817l264 -196q-15 -85 -34 -85q-504 182 -732 596q-162 388 -162 646zM579 902v119l34 34h442l34 -34v-119q-14 -34 -59 -34h-417zM579 1149v127l25 26h460q25 -9 25 -51v-77q0 -59 -76 -59h-358q-65 0 -76 34z" />
<glyph unicode="K" horiz-adv-x="1168" d="M0 37v145l37 37h758l27 27q0 404 -346 832q-151 143 -313 228q27 101 48 101q559 -213 784 -658q174 -395 174 -703q0 -46 -83 -46h-1003q-71 0 -83 37z" />
<glyph unicode="L" horiz-adv-x="1199" d="M0 37v35q0 379 246 814q288 385 720 519l29 -99q-414 -216 -602 -749q-45 -176 -45 -274v-55l45 -9h712q48 0 62 -37v-118q0 -64 -81 -64h-1003q-71 0 -83 37zM639 639v73q0 49 36 64h457q64 0 64 -83v-37q0 -81 -64 -81h-428q-65 0 -65 64z" />
<glyph unicode="M" horiz-adv-x="1170" d="M0 708v670l27 27h1120q23 0 29 -45q0 -444 -295 -892q-314 -344 -569 -431l-110 -37l-37 101q202 87 423 367q239 390 239 698l-29 29h-577q-29 -11 -29 -56v-431q-8 -29 -54 -29h-82q-48 0 -56 29z" />
<glyph unicode="N" horiz-adv-x="1176" d="M0 1339v37l27 29h1119q29 -10 29 -56v-633l-37 -37h-128q-37 14 -37 64v422l-27 29h-551l-45 -10v-56q0 -354 339 -797l310 -240q-14 -91 -35 -91q-544 197 -790 641q-174 421 -174 698z" />
<glyph unicode="O" horiz-adv-x="1163" d="M0 37v144l37 37h754l27 27q0 221 -80 355h-347l-37 37v127q15 37 64 37h237v9q-20 53 -37 53h-200q-49 0 -64 37v128q0 37 120 37q-138 151 -311 235q27 101 47 101q258 -68 544 -336h356q36 -16 36 -64v-74q0 -64 -64 -64h-155v-8l29 -54h126q64 0 64 -63v-75 q0 -47 -36 -63h-55q109 -342 109 -555q0 -45 -82 -45h-1000q-70 0 -82 37z" />
<glyph unicode="P" horiz-adv-x="1165" d="M0 1336v37l27 27h1118q26 -8 26 -56v-117q-14 -37 -63 -37h-715l-45 -10v-54q0 -354 338 -797l310 -238q-14 -91 -35 -91q-541 196 -788 640q-173 418 -173 696z" />
<glyph unicode="Q" horiz-adv-x="1165" d="M0 1227v146l27 27h1110q20 0 27 -45q0 -438 -290 -882q-313 -341 -566 -428l-109 -37l-35 101q200 86 418 364q236 386 236 691l-27 26h-754zM927 72v319q0 63 64 63h72q49 0 64 -37v-380q-13 -37 -81 -37h-28q-91 0 -91 72z" />
<glyph unicode="R" horiz-adv-x="787" d="M0 37v35q8 29 54 29h201q47 234 47 475q-64 0 -64 64v72q0 65 64 65h27v155l-18 383h-156l-37 37v27l29 27h493l27 -27v-27l-38 -37h-155l-18 -383v-155h29q64 0 64 -65v-72q0 -64 -75 -64q0 -135 56 -475h201q54 -6 54 -29v-35q-15 -37 -64 -37h-657q-50 0 -64 37z" />
<glyph unicode="S" horiz-adv-x="1078" d="M0 25v622q8 25 52 25h76q50 -6 50 -25v-400q6 -52 27 -52h536l25 27q0 375 -324 774q-139 132 -289 212q23 94 42 94q521 -199 732 -613q162 -367 162 -655q-13 -34 -24 -34h-1040z" />
<glyph unicode="T" horiz-adv-x="1152" d="M0 25v34q0 414 281 826l171 170q-192 146 -222 146v7q13 94 34 94q201 -63 307 -153q260 153 331 153l25 -94q-175 -103 -220 -161q268 -187 400 -664q49 -197 49 -358l-24 -25h-35q-262 182 -262 237q0 291 -247 674h-10q-172 -180 -254 -612q0 -123 -69 -153 q-194 -146 -221 -146h-9z" />
<glyph unicode="U" horiz-adv-x="1086" d="M0 1242v34l26 26h1038q25 -9 25 -51v-111q-14 -34 -59 -34h-664l-43 -8v-51q0 -329 315 -741l290 -221q-15 -85 -34 -85q-504 182 -732 596q-162 388 -162 646zM757 485v392q0 45 34 59h103q51 -5 51 -25v-460l-26 -26h-128q-34 14 -34 60z" />
<glyph unicode="V" horiz-adv-x="1115" d="M0 613v136q9 25 51 25h400q60 0 60 -59v-68q0 -46 -34 -60h-426q-44 0 -51 26zM17 1140v111q5 51 26 51h1038l25 -26v-34q0 -369 -238 -765q-243 -341 -664 -477l-25 94q386 199 561 697q43 164 43 256v42l-17 17h-689q-46 0 -60 34z" />
<glyph unicode="W" horiz-adv-x="1086" d="M0 26v136l34 34h706l26 25q0 376 -323 775q-140 132 -290 212q24 94 43 94q521 -199 732 -613q161 -368 161 -655l-25 -34h-1038zM136 425v392q0 46 34 60h119l34 -35v-442l-34 -34h-119q-34 14 -34 59z" />
<glyph unicode="X" horiz-adv-x="1115" d="M0 1242v34l26 26h1038q25 -9 25 -51v-111q-14 -34 -59 -34h-664l-43 -8v-51q0 -329 315 -741l290 -221q-15 -85 -34 -85q-504 182 -732 596q-162 388 -162 646zM596 647v68q0 59 59 59h400q60 0 60 -76v-34q0 -77 -60 -77h-425q-34 14 -34 60z" />
<glyph unicode="Y" horiz-adv-x="917" d="M0 44v34q0 347 226 747q265 355 663 478l25 -93q-376 -199 -537 -644q-66 -213 -66 -353q-241 -193 -277 -193h-9zM436 37v411l34 32h125q25 -7 25 -49v-419l-32 -34h-93q-59 0 -59 59zM679 54v368q0 45 34 58h125l26 -24v-444l-34 -34h-93q-58 0 -58 76z" />
<glyph unicode="Z" horiz-adv-x="1093" d="M0 659v626l25 25h1046q19 0 25 -42q0 -415 -273 -831q-295 -321 -532 -402l-102 -35l-35 94q320 172 470 470l27 70h-258q-44 0 -50 25v129l35 35h350l18 59h-378l-25 25v129q13 35 60 35h368v16l-25 27h-540q-27 -10 -27 -53v-402q-8 -25 -50 -25h-77q-44 0 -52 25z" />
<glyph unicode="[" horiz-adv-x="758" />
<glyph unicode="\" horiz-adv-x="569" />
<glyph unicode="]" horiz-adv-x="758" />
<glyph unicode="^" />
<glyph unicode="_" horiz-adv-x="1024" d="M0 -100h1024v-60h-1024v60z" />
<glyph unicode="`" horiz-adv-x="1024" d="M212 1363q0 31 20.5 51t53.5 20q20 0 40.5 -12t55.5 -47l291 -296h-69l-330 202q-31 20 -46.5 40t-15.5 42z" />
<glyph unicode="a" horiz-adv-x="1064" d="M0 1188l8 8h17q240 -158 240 -215q0 -313 272 -684q183 204 270 585l10 116v17q8 19 230 181h25v-8q0 -390 -265 -792l-188 -190l223 -164v-17l-17 -25q-96 34 -297 149q-37 -48 -280 -149l-18 42q136 82 223 164v17q-135 101 -247 265q-149 264 -174 493q-13 21 -32 207 zM470 874v396l25 25h74l25 -25v-396l-25 -25h-74z" />
<glyph unicode="b" horiz-adv-x="1152" d="M0 44q180 79 404 360v10h-44l-27 27v80q0 27 108 27q-207 399 -207 745l9 10h8q215 -149 261 -207v-10q0 -118 53 -321h19q54 210 54 331q46 58 261 207l17 -17q0 -326 -207 -738q109 0 109 -27v-80l-27 -27h-46v-10q140 -199 405 -368q-14 -36 -27 -36q-230 61 -548 368 q-385 -351 -558 -368z" />
<glyph unicode="c" horiz-adv-x="1144" d="M0 574v73l36 35h412l36 -35v-73l-26 -26h-431zM224 1258v8l19 36q532 -203 762 -691q136 -368 136 -611h-27q-243 176 -252 197v19q0 316 -278 745q-182 197 -360 297z" />
<glyph unicode="d" horiz-adv-x="888" d="M0 1248l27 10q252 -170 252 -210q0 -416 366 -830l245 -183v-18q0 -17 -25 -17q-499 197 -717 638q-104 225 -148 610zM462 865v418l27 27h79l25 -27v-418l-25 -27h-79zM717 865v418l25 27h79l27 -27v-418l-27 -27h-79z" />
<glyph unicode="e" horiz-adv-x="1247" d="M0 10q0 310 216 754q288 398 682 538l17 -27v-17q-316 -199 -457 -460q-180 -360 -180 -610l-251 -188h-10l-7 10h-10zM333 44q387 195 575 720q70 201 70 358q240 180 270 180v-17q0 -368 -233 -781q-293 -380 -665 -504z" />
<glyph unicode="f" horiz-adv-x="1400" d="M0 10q0 310 216 754q282 392 682 538l17 -27v-17q-316 -199 -457 -460q-180 -360 -180 -610l-251 -188h-10l-7 10h-10zM484 0v10q0 473 324 905q322 318 567 377h17l10 -34q-381 -186 -577 -720q-53 -128 -71 -358q-239 -180 -270 -180zM1114 260v441l18 17h90 q26 -10 26 -54v-394l-36 -36h-71z" />
<glyph unicode="g" horiz-adv-x="913" d="M0 10q0 309 216 752q281 392 680 537l17 -27v-17q-315 -199 -456 -458q-180 -360 -180 -610l-250 -187h-10l-7 10h-10zM609 350v420l27 27h90l17 -18v-439l-17 -17h-90z" />
<glyph unicode="h" horiz-adv-x="1235" d="M0 44q349 196 502 538q-188 405 -188 709l10 10h7q278 -180 278 -251h10q6 71 278 251l19 -17q0 -324 -190 -692q146 -345 504 -548v-17l-29 -27q-274 82 -592 422q-255 -315 -592 -422z" />
<glyph unicode="i" horiz-adv-x="1084" d="M0 107q19 333 191 679q60 102 264 308l-223 174l17 33q160 -59 291 -149q122 84 288 149l18 -25v-17q-151 -94 -224 -174q289 -201 413 -687q42 -193 42 -299h-25q-224 163 -231 182v17q0 312 -274 705h-7q-284 -389 -284 -729l-231 -175h-8l-9 8h-8zM473 25v398l24 25 h75l25 -25v-398l-25 -25h-75z" />
<glyph unicode="j" horiz-adv-x="1086" d="M0 1284l9 9h18q258 -176 258 -232q0 -328 286 -740q207 -212 339 -276v-27q0 -18 -27 -18q-479 191 -705 606q-178 403 -178 678zM615 927v90l18 17h437l18 -17v-90l-27 -26h-419zM615 1186v89l27 27h419l27 -27v-89l-18 -18h-437z" />
<glyph unicode="k" horiz-adv-x="1078" d="M0 27v90l27 27h704q67 0 81 70q0 410 -375 856l-259 188v17l17 27q504 -197 724 -624q169 -383 169 -661l-27 -17h-1034z" />
<glyph unicode="l" horiz-adv-x="1105" d="M0 17q0 310 214 751q282 390 678 534l17 -27v-17q-396 -222 -570 -724q-54 -170 -54 -258v-88q23 -44 71 -44h714l18 -20v-97l-27 -27h-1034zM634 580v88l17 19h437l19 -19v-88l-19 -19h-437z" />
<glyph unicode="m" horiz-adv-x="1082" d="M0 678v597l27 27h1034l26 -27q0 -304 -204 -731q-249 -379 -688 -544l-17 27v9l278 213q247 274 339 678l17 170q-14 36 -44 54h-590q-44 -23 -44 -71v-412l-17 -17h-90z" />
<glyph unicode="n" horiz-adv-x="1087" d="M0 1283l27 17h1032l27 -27v-596l-27 -27h-80l-27 27v409q0 63 -61 63h-570l-36 -36v-71q0 -302 285 -721q206 -212 338 -277v-27q0 -17 -27 -17q-478 191 -703 606q-178 402 -178 677z" />
<glyph unicode="o" horiz-adv-x="1086" d="M0 27v88l27 27h704q69 0 80 73q0 126 -71 364h-356l-27 27v90l17 17h303q-60 135 -79 135h-224l-17 17v90l27 27h124q-138 169 -320 266l-10 10v8l18 36q195 -54 508 -320h330l36 -37v-71l-27 -26h-222l88 -135h134l27 -27v-70q0 -37 -107 -37q124 -349 124 -562l-27 -17 h-1033z" />
<glyph unicode="p" horiz-adv-x="1092" d="M0 1287l27 17h1035l27 -27v-98l-27 -26h-740l-36 -37v-71q0 -303 285 -723q208 -213 340 -278v-27q0 -17 -27 -17q-479 192 -706 608q-178 403 -178 679z" />
<glyph unicode="q" horiz-adv-x="1077" d="M0 1185v88l27 27h1024l27 -27q0 -302 -202 -724q-247 -377 -681 -539l-17 26v8l273 212q247 272 337 673l17 168q-12 37 -44 52h-725zM910 17v327l27 27h80l27 -27v-327l-17 -17h-98z" />
<glyph unicode="r" horiz-adv-x="692" d="M0 17l10 10h229q62 329 62 523h-44l-27 26v88l19 18h61l10 134v17q0 270 -27 433h-169v19l18 17h415l19 -17l-19 -19h-159l-17 -355v-229h61l27 -27v-79l-27 -26h-51q24 -337 70 -523h230v-27h-674z" />
<glyph unicode="s" horiz-adv-x="1086" d="M0 27v588l36 36h71l27 -27v-392q0 -88 80 -88h517q67 0 81 70q0 410 -375 856l-259 188v8l17 36q504 -197 724 -624q169 -383 169 -661l-27 -17h-1034z" />
<glyph unicode="t" horiz-adv-x="1166" d="M0 10q19 360 207 736q63 109 288 332l-244 188l17 36q175 -65 315 -161q134 90 314 161l20 -27v-17q-163 -104 -244 -190q315 -219 449 -744q46 -209 46 -324h-27q-244 176 -251 198v17q0 339 -297 763h-10q-305 -420 -305 -790l-251 -188h-10l-7 10h-10z" />
<glyph unicode="u" horiz-adv-x="1078" d="M0 1284l27 18h1034l27 -27v-98l-27 -27h-740l-36 -35v-72q0 -303 286 -722q207 -212 339 -276v-27q0 -18 -27 -18q-479 191 -705 606q-178 403 -178 678zM803 464v428l17 18h99l17 -18v-437l-17 -18h-90z" />
<glyph unicode="v" horiz-adv-x="1115" d="M0 633v80l27 27h428l27 -27v-80l-27 -27h-428zM27 1177v98l27 27h1025q27 0 27 -36q0 -353 -232 -767q-290 -380 -660 -499l-9 9v45q384 180 580 740q44 161 44 267v27q0 62 -62 62h-713z" />
<glyph unicode="w" horiz-adv-x="1085" d="M0 27v89l27 27h704q68 0 81 71q0 410 -375 856l-259 187v9l18 36q502 -196 723 -624q169 -382 169 -660l-27 -18h-1034zM152 410v428l26 27h81l26 -27v-428l-26 -27h-81z" />
<glyph unicode="x" horiz-adv-x="1100" d="M0 1277l27 18h1029l26 -27v-97l-26 -27h-737l-35 -35v-71q0 -302 284 -719q205 -210 337 -275v-26q0 -18 -27 -18q-476 190 -701 603q-177 400 -177 674zM630 630v88l18 18h434l18 -18v-97l-18 -18h-426z" />
<glyph unicode="y" horiz-adv-x="900" d="M0 32q0 305 211 740q282 390 668 527l19 -26v-17q-310 -194 -450 -450q-175 -354 -175 -597l-247 -187h-9l-8 10h-9zM467 -4v424l26 26h79l27 -26v-424l-19 -17h-96zM721 5v415l27 26h88l17 -19v-431l-17 -17h-88z" />
<glyph unicode="z" horiz-adv-x="1086" d="M0 678v598l27 27h1035l26 -27q0 -304 -205 -732q-249 -379 -688 -544l-17 27v9l251 186q184 192 276 430h-322l-27 26v81l27 27h376l36 124h-412l-27 27v80l27 27h429v37q0 48 -44 71h-590q-44 -23 -44 -71v-412l-17 -17h-90z" />
<glyph unicode="{" horiz-adv-x="1401" d="M0 1387v43l33 33h11q61 0 359 -261q0 -508 446 -1046l338 -250q-19 -109 -43 -109q-644 233 -937 762q-207 497 -207 828zM1154 287v501q0 58 44 76h152l44 -43v-567l-44 -43h-152q-44 17 -44 76z" />
<glyph unicode="|" d="M427 -418v1995h160v-1995h-160z" />
<glyph unicode="}" horiz-adv-x="1403" d="M0 266v595l33 33h165l33 -33v-595l-33 -33h-165zM198 -64q242 105 507 440q286 467 286 837v11q62 81 341 275h44q25 0 33 -55q0 -531 -352 -1068q-378 -413 -683 -517l-132 -44z" />
<glyph unicode="~" d="M94 556v156q64 73 123 99t114 26q64 0 181.5 -49.5t172.5 -49.5q52 0 108.5 28t129.5 112v-156q-63 -72 -122 -97.5t-116 -25.5q-60 0 -177.5 48.5t-176.5 48.5q-51 0 -107.5 -28t-129.5 -112z" />
<glyph unicode="&#xa1;" horiz-adv-x="672" />
<glyph unicode="&#xa2;" horiz-adv-x="1139" />
<glyph unicode="&#xa3;" d="M76 673v60h135q-58 143 -58 253q0 226 123.5 347t306.5 121h4q75 0 185.5 -14t110.5 -34v-161h-58q-5 61 -77 102q-72 31 -160 31h-2q-100 0 -190 -101q-84 -93 -84 -241q0 -15 1 -30q0 -135 53 -273h360v-60h-334q14 -30 31 -60q35 -63 35 -138q0 -161 -162 -375h402 q130 0 189 132l49 -1l-103 -231h-719l1 50q187 238 187 418q0 77 -34 143q-17 32 -31 62h-161z" />
<glyph unicode="&#xa4;" d="M122 413l118 117q-32 46 -48 103q-12 42 -12 84q0 44 13 87q16 55 47 99l-118 118l80 81l118 -118q44 30 99 46q44 14 89 14q41 0 83 -12q57 -17 102 -48l118 118l80 -81l-117 -117q31 -46 48 -102q12 -42 12 -85q0 -42 -12 -85q-17 -56 -48 -102l117 -117l-80 -81 l-118 118q-45 -32 -101 -48q-42 -12 -85 -12q-42 0 -85 12q-57 16 -102 48l-118 -118zM284 716q0 -28 9 -56q16 -59 57 -100q41 -40 99 -57q29 -8 58 -8t58 8q58 17 99 57q40 41 57 99q9 29 9 58t-9 58q-17 58 -57 99q-41 40 -100 57q-29 8 -58 8t-58 -9q-58 -17 -98 -56 q-39 -40 -56 -98q-10 -30 -10 -60z" />
<glyph unicode="&#xa5;" horiz-adv-x="1262" d="M8 1176q0 19 10.5 27.5t32.5 8.5q27 0 123 -8t164 -8h57h31q33 0 41 -6.5t8 -26.5q0 -8 -15 -14t-38 -6q-6 0 -18.5 2t-18.5 2q-24 0 -37.5 -9.5t-13.5 -25.5q0 -18 16.5 -52t46.5 -77l158 -221q13 -19 33 -53q41 -70 71 -70q9 0 16.5 5t14.5 15l277 396q8 12 13 26.5 t5 24.5q0 18 -10 27t-37 14q-15 2 -41 4q-47 3 -47 25q0 15 8 22.5t25 7.5q3 0 15 -1q56 -7 108 -7h139q30 0 65 1t37 1q11 0 18.5 -4.5t8.5 -11.5q0 -28 -38 -34q-18 -3 -27 -5q-63 -15 -147 -117q-7 -9 -12 -15l-169 -206h323q15 0 24 -6t9 -17q0 -15 -6 -20.5t-23 -5.5 h-366q-46 -57 -96.5 -112.5t-52.5 -59.5h511q18 0 25.5 -5.5t7.5 -17.5q0 -14 -7 -21t-22 -7h-530q0 -11 -1 -30.5t-1 -29.5l2 -215q0 -114 5.5 -150t20.5 -44q30 -17 107.5 -19t77.5 -31q0 -12 -10 -20t-25 -8q-2 0 -35.5 4t-64.5 4q-91 0 -208.5 -4t-142.5 -4q-31 0 -40 4 t-9 16t8 18.5t37 12.5q9 2 25 5q74 16 92 32q17 13 24 47t7 102l-2 242q0 19 -1.5 35t-4.5 32l-484 1q-14 0 -21 6.5t-7 19.5t6.5 19t21.5 6h467l-121 172h-344q-17 0 -23.5 5.5t-6.5 18.5q0 14 6 19.5t22 5.5h307q-43 57 -108 155q-131 197 -227 197q-7 0 -13 5.5t-6 11.5z " />
<glyph unicode="&#xa6;" d="M427 371h160v-789h-160v789zM427 789v789h160v-789h-160z" />
<glyph unicode="&#xa7;" d="M170 1130q0 148 89 237q82 79 216 86q8 1 17 1h3q66 0 163 -16.5t97 -41.5v-194h-51q-5 81 -80 132q-70 47 -149 51h-15q-78 0 -125 -44.5t-47 -117.5q0 -132 287 -269q149 -67 204.5 -143.5t55.5 -187.5q0 -171 -101 -282q-47 -39 -99 -64q108 -56 154 -118 q55 -77 55 -187q0 -171 -101 -283q-124 -102 -277 -105v1q-6 -1 -13 -1h-3q-66 0 -163 16.5t-97 41.5v194h51q5 -81 80 -132q68 -45 145 -50q113 6 185 69q72 64 72 165q0 125 -316 276q-123 64 -175.5 137t-52.5 177q0 148 89 237q67 65 170 82l-40 19q-123 64 -175.5 137 t-52.5 177zM297 571q0 -123 248 -250q56 16 97 53q73 65 73 166q0 5 -1 10h-2q-1 14 -4 27q-22 61 -113 127q-59 29 -126 29q-78 0 -125 -44.5t-47 -117.5z" />
<glyph unicode="&#xa8;" horiz-adv-x="1024" d="M209 1263q0 13 14 26l71 72q13 12 25 12q11 0 27 -14l69 -73q10 -14 10 -25q0 -13 -12 -27l-69 -75q-17 -17 -25 -17q-14 0 -25 12l-76 86q-9 12 -9 23zM574 1263q0 13 14 26l71 72q13 12 25 12q11 0 27 -13l69 -74q10 -14 10 -25q0 -13 -12 -26l-69 -76q-17 -17 -25 -17 q-14 0 -25 12l-76 87q-9 11 -9 22z" />
<glyph unicode="&#xa9;" horiz-adv-x="1674" d="M100 718q0 148 55.5 283t159.5 238q102 104 238.5 160.5t286.5 56.5q145 0 280 -56.5t239 -160.5q102 -101 158.5 -238t56.5 -283q0 -147 -56.5 -282t-162.5 -240q-105 -105 -239 -159.5t-283 -54.5q-146 0 -278 55.5t-238 160.5q-106 104 -161.5 237.5t-55.5 282.5z M160 718q0 -137 51 -259t148 -219q98 -96 219 -147t256 -51q137 0 259.5 50.5t219.5 145.5q97 98 149 221.5t52 258.5q0 134 -52 259.5t-145 219.5q-96 96 -220 147.5t-258 51.5q-137 0 -262 -51.5t-220 -147.5t-146 -219.5t-51 -259.5zM351 719q0 126 65.5 244t187.5 184.5 t254 66.5q38 0 75 -6.5t76 -20.5q5 -1 9 -1q19 0 26 30h42l72 -198h-44q-52 94 -131 124q-72 26 -147 26h-15q-86 -8 -166.5 -71t-121.5 -177q-33 -90 -33 -184q0 -25 2 -50q11 -121 69.5 -224t149.5 -152q72 -40 166 -42q124 0 194 56t70 126h53v-100q0 -46 -96.5 -86.5 t-242.5 -40.5q-142 0 -264 68t-186 185t-64 243z" />
<glyph unicode="&#xaa;" horiz-adv-x="648" />
<glyph unicode="&#xab;" horiz-adv-x="944" d="M174 479l342 303h14v-37l-205 -266l205 -266v-37h-14zM487 479l342 303h14v-37l-205 -266l205 -266v-37h-14z" />
<glyph unicode="&#xac;" d="M87 667v100h840v-491l-1 -1h-98v392h-741z" />
<glyph unicode="&#xad;" horiz-adv-x="670" d="M116 437v83q0 29 41 29h356q41 0 41 -29v-83q0 -28 -40 -28h-358q-40 0 -40 28z" />
<glyph unicode="&#xae;" horiz-adv-x="1674" d="M100 718q0 148 55.5 283t159.5 238q102 104 238.5 160.5t286.5 56.5q145 0 280 -56.5t239 -160.5q102 -101 158.5 -238t56.5 -283q0 -147 -56.5 -282t-162.5 -240q-105 -105 -239 -159.5t-283 -54.5q-146 0 -278 55.5t-238 160.5q-106 104 -161.5 237.5t-55.5 282.5z M160 718q0 -137 51 -259t148 -219q98 -96 219 -147t256 -51q137 0 259.5 50.5t219.5 145.5q97 98 149 221.5t52 258.5q0 134 -52 259.5t-145 219.5q-96 96 -220 147.5t-258 51.5q-137 0 -262 -51.5t-220 -147.5t-146 -219.5t-51 -259.5zM524 269v50h43q37 0 37 121v538 q0 121 -37 121h-43v70h356q64 -1 125 -42q60 -41 92.5 -114t32.5 -152q0 -78 -32 -150.5t-114 -134.5l82 -116q100 -141 150 -141h34v-50h-346v50h45q30 0 30 22q0 29 -69 114l-75 102q-42 0 -84 42v-159q0 -121 36 -121h53v-50h-316zM751 725l3 -8q23 -56 56 -81 q29 -22 56 -22h6q31 4 61.5 38.5t46.5 97.5q13 50 13 103q0 13 -1 27q-4 67 -28 124.5t-56.5 76t-63.5 18.5h-93v-374z" />
<glyph unicode="&#xaf;" horiz-adv-x="670" />
<glyph unicode="&#xb0;" horiz-adv-x="674" d="M60 1164q0 116 81.5 197t197.5 81q115 0 196 -81.5t81 -196.5q0 -114 -82 -196t-197 -82q-117 0 -197 81t-80 197zM130 1163q0 -87 61 -147t148 -60t147 60t60 147t-60.5 148t-146.5 61t-147.5 -61t-61.5 -148z" />
<glyph unicode="&#xb1;" />
<glyph unicode="&#xb2;" />
<glyph unicode="&#xb3;" />
<glyph unicode="&#xb4;" horiz-adv-x="1024" d="M316 1078l291 297q35 35 55.5 47t40.5 12q33 0 53.5 -20t20.5 -51q0 -22 -15.5 -42t-46.5 -40l-330 -203h-69z" />
<glyph unicode="&#xb5;" horiz-adv-x="1180" />
<glyph unicode="&#xb6;" horiz-adv-x="1024" d="M93 1086q0 157 107.5 253t285.5 96h443v-70h-127v-1365h-82v1365h-166v-1365h-84v738q-174 8 -275.5 102.5t-101.5 245.5z" />
<glyph unicode="&#xb7;" horiz-adv-x="508" d="M129 709q0 15 16 31l82 84q15 14 29 14q13 0 31 -16l80 -86q12 -16 12 -29q0 -15 -14 -31l-80 -88q-20 -20 -29 -20q-16 0 -29 14l-88 101q-10 13 -10 26z" />
<glyph unicode="&#xb8;" horiz-adv-x="1024" d="M360 -290q85 -52 152 -52q66 0 94.5 21.5t28.5 66.5t-49 64q-40 16 -102 16q-16 0 -34 -2l48 176h63l-37 -104q32 4 62 5q86 0 134 -40.5t48 -113.5q0 -76 -58.5 -120.5t-160.5 -44.5q-109 0 -189 32v96z" />
<glyph unicode="&#xb9;" />
<glyph unicode="&#xba;" horiz-adv-x="718" />
<glyph unicode="&#xbb;" horiz-adv-x="944" d="M101 176v37l205 266l-205 266v37h14l342 -303l-342 -303h-14zM414 176v37l205 266l-205 266v37h14l342 -303l-342 -303h-14z" />
<glyph unicode="&#xbc;" horiz-adv-x="1708" />
<glyph unicode="&#xbd;" horiz-adv-x="1964" />
<glyph unicode="&#xbe;" horiz-adv-x="1708" />
<glyph unicode="&#xbf;" horiz-adv-x="748" />
<glyph unicode="&#xc0;" horiz-adv-x="1540" />
<glyph unicode="&#xc1;" horiz-adv-x="1540" />
<glyph unicode="&#xc2;" horiz-adv-x="1540" />
<glyph unicode="&#xc3;" horiz-adv-x="1540" />
<glyph unicode="&#xc4;" horiz-adv-x="1540" />
<glyph unicode="&#xc5;" horiz-adv-x="1540" />
<glyph unicode="&#xc6;" horiz-adv-x="2118" />
<glyph unicode="&#xc7;" horiz-adv-x="1399" />
<glyph unicode="&#xc8;" horiz-adv-x="1151" />
<glyph unicode="&#xc9;" horiz-adv-x="1151" />
<glyph unicode="&#xca;" horiz-adv-x="1151" />
<glyph unicode="&#xcb;" horiz-adv-x="1151" />
<glyph unicode="&#xcc;" horiz-adv-x="657" />
<glyph unicode="&#xcd;" horiz-adv-x="657" />
<glyph unicode="&#xce;" horiz-adv-x="657" />
<glyph unicode="&#xcf;" horiz-adv-x="657" />
<glyph unicode="&#xd0;" horiz-adv-x="1518" />
<glyph unicode="&#xd1;" horiz-adv-x="1554" />
<glyph unicode="&#xd2;" horiz-adv-x="1614" />
<glyph unicode="&#xd3;" horiz-adv-x="1614" />
<glyph unicode="&#xd4;" horiz-adv-x="1614" />
<glyph unicode="&#xd5;" horiz-adv-x="1614" />
<glyph unicode="&#xd6;" horiz-adv-x="1614" />
<glyph unicode="&#xd7;" d="M161 470l247 247l-247 248l99 98l247 -247l248 247l98 -99l-247 -247l247 -247l-99 -99l-247 247l-247 -247z" />
<glyph unicode="&#xd8;" horiz-adv-x="1614" />
<glyph unicode="&#xd9;" horiz-adv-x="1501" />
<glyph unicode="&#xda;" horiz-adv-x="1501" />
<glyph unicode="&#xdb;" horiz-adv-x="1501" />
<glyph unicode="&#xdc;" horiz-adv-x="1501" />
<glyph unicode="&#xdd;" horiz-adv-x="1233" />
<glyph unicode="&#xde;" horiz-adv-x="1120" />
<glyph unicode="&#xdf;" horiz-adv-x="1251" />
<glyph unicode="&#xe0;" horiz-adv-x="922" />
<glyph unicode="&#xe1;" horiz-adv-x="922" />
<glyph unicode="&#xe2;" horiz-adv-x="922" />
<glyph unicode="&#xe3;" horiz-adv-x="922" />
<glyph unicode="&#xe4;" horiz-adv-x="922" />
<glyph unicode="&#xe5;" horiz-adv-x="922" />
<glyph unicode="&#xe6;" horiz-adv-x="1454" />
<glyph unicode="&#xe7;" horiz-adv-x="905" />
<glyph unicode="&#xe8;" horiz-adv-x="909" />
<glyph unicode="&#xe9;" horiz-adv-x="909" />
<glyph unicode="&#xea;" horiz-adv-x="909" />
<glyph unicode="&#xeb;" horiz-adv-x="909" />
<glyph unicode="&#xec;" horiz-adv-x="514" />
<glyph unicode="&#xed;" horiz-adv-x="514" />
<glyph unicode="&#xee;" horiz-adv-x="514" />
<glyph unicode="&#xef;" horiz-adv-x="514" />
<glyph unicode="&#xf0;" horiz-adv-x="1139" />
<glyph unicode="&#xf1;" horiz-adv-x="1108" />
<glyph unicode="&#xf2;" horiz-adv-x="1010" />
<glyph unicode="&#xf3;" horiz-adv-x="1010" />
<glyph unicode="&#xf4;" horiz-adv-x="1010" />
<glyph unicode="&#xf5;" horiz-adv-x="1010" />
<glyph unicode="&#xf6;" horiz-adv-x="1010" />
<glyph unicode="&#xf7;" d="M87 647v140h839l1 -1v-139h-840zM382 377q0 15 16 31l82 84q15 14 29 14q13 0 31 -16l80 -86q12 -16 12 -29q0 -15 -14 -31l-80 -88q-20 -20 -29 -20q-16 0 -29 14l-88 101q-10 13 -10 26zM382 1070q0 15 16 31l82 84q15 14 29 14q13 0 31 -16l80 -86q12 -16 12 -29 q0 -15 -14 -31l-80 -88q-20 -20 -29 -20q-16 0 -29 14l-88 101q-10 13 -10 26z" />
<glyph unicode="&#xf8;" horiz-adv-x="1010" />
<glyph unicode="&#xf9;" horiz-adv-x="1059" />
<glyph unicode="&#xfa;" horiz-adv-x="1059" />
<glyph unicode="&#xfb;" horiz-adv-x="1059" />
<glyph unicode="&#xfc;" horiz-adv-x="1059" />
<glyph unicode="&#xfd;" horiz-adv-x="868" />
<glyph unicode="&#xfe;" horiz-adv-x="1010" />
<glyph unicode="&#xff;" horiz-adv-x="868" />
<glyph unicode="&#x2c6;" horiz-adv-x="1024" d="M221 1079l232 355h118l232 -355h-58l-233 216l-233 -216h-58z" />
<glyph unicode="&#x2dc;" horiz-adv-x="1024" d="M234 1132q19 106 68 158.5t129 52.5q46 -1 113 -24q64 -23 112 -23h4q36 0 58 20t36 66h54q-20 -103 -68.5 -154t-126.5 -51h-4q-50 0 -113 23q-66 24 -114 24q-39 0 -60.5 -20.5t-33.5 -71.5h-54z" />
<glyph unicode="&#x2000;" horiz-adv-x="789" />
<glyph unicode="&#x2001;" horiz-adv-x="1579" />
<glyph unicode="&#x2002;" horiz-adv-x="789" />
<glyph unicode="&#x2003;" horiz-adv-x="1579" />
<glyph unicode="&#x2004;" horiz-adv-x="526" />
<glyph unicode="&#x2005;" horiz-adv-x="394" />
<glyph unicode="&#x2006;" horiz-adv-x="263" />
<glyph unicode="&#x2007;" horiz-adv-x="263" />
<glyph unicode="&#x2008;" horiz-adv-x="197" />
<glyph unicode="&#x2009;" horiz-adv-x="315" />
<glyph unicode="&#x200a;" horiz-adv-x="87" />
<glyph unicode="&#x2010;" horiz-adv-x="670" d="M116 437v83q0 29 41 29h356q41 0 41 -29v-83q0 -28 -40 -28h-358q-40 0 -40 28z" />
<glyph unicode="&#x2011;" horiz-adv-x="670" d="M116 437v83q0 29 41 29h356q41 0 41 -29v-83q0 -28 -40 -28h-358q-40 0 -40 28z" />
<glyph unicode="&#x2012;" horiz-adv-x="670" d="M116 437v83q0 29 41 29h356q41 0 41 -29v-83q0 -28 -40 -28h-358q-40 0 -40 28z" />
<glyph unicode="&#x2013;" horiz-adv-x="1108" d="M56 419v120h996v-120h-996z" />
<glyph unicode="&#x2014;" horiz-adv-x="2048" d="M0 419v120h2048v-120h-2048z" />
<glyph unicode="&#x2018;" horiz-adv-x="557" d="M186 1233q0 109 71 226.5t139 117.5v-43q-73 -43 -87 -190q0 -119 129 -161v-42l-119 -125q-44 0 -88.5 65.5t-44.5 151.5z" />
<glyph unicode="&#x2019;" horiz-adv-x="557" d="M119 1410v42l119 125q44 0 88.5 -65.5t44.5 -151.5q0 -109 -71 -226.5t-139 -117.5v43q73 43 87 190q0 119 -129 161z" />
<glyph unicode="&#x201a;" horiz-adv-x="557" d="M119 114v42l119 125q44 0 88.5 -65.5t44.5 -151.5q0 -109 -71 -226.5t-139 -117.5v43q73 43 87 190q0 119 -129 161z" />
<glyph unicode="&#x201c;" horiz-adv-x="910" d="M186 1233q0 109 71 226.5t139 117.5v-43q-73 -43 -87 -190q0 -119 129 -161v-42l-119 -125q-44 0 -88.5 65.5t-44.5 151.5zM539 1233q0 109 71 226.5t139 117.5v-43q-73 -43 -87 -190q0 -119 129 -161v-42l-119 -125q-44 0 -88.5 65.5t-44.5 151.5z" />
<glyph unicode="&#x201d;" horiz-adv-x="910" d="M119 1410v42l119 125q44 0 88.5 -65.5t44.5 -151.5q0 -109 -71 -226.5t-139 -117.5v43q73 43 87 190q0 119 -129 161zM472 1410v42l119 125q44 0 88.5 -65.5t44.5 -151.5q0 -109 -71 -226.5t-139 -117.5v43q73 43 87 190q0 119 -129 161z" />
<glyph unicode="&#x201e;" horiz-adv-x="910" d="M119 114v42l119 125q44 0 88.5 -65.5t44.5 -151.5q0 -109 -71 -226.5t-139 -117.5v43q73 43 87 190q0 119 -129 161zM472 114v42l119 125q44 0 88.5 -65.5t44.5 -151.5q0 -109 -71 -226.5t-139 -117.5v43q73 43 87 190q0 119 -129 161z" />
<glyph unicode="&#x2022;" horiz-adv-x="1024" d="M216 718q0 123 87 209t210 86q122 0 208.5 -86.5t86.5 -208.5t-87.5 -209.5t-209.5 -87.5q-123 0 -209 87t-86 210z" />
<glyph unicode="&#x2026;" horiz-adv-x="2048" d="M129 136q0 15 16 31l82 84q15 14 29 14q13 0 31 -16l80 -86q12 -16 12 -29q0 -15 -14 -31l-80 -88q-20 -20 -29 -20q-16 0 -29 14l-88 101q-10 13 -10 26zM812 136q0 15 16 31l82 84q15 14 29 14q13 0 31 -16l80 -86q12 -16 12 -29q0 -15 -14 -31l-80 -88 q-20 -20 -29 -20q-16 0 -29 14l-88 101q-10 13 -10 26zM1495 136q0 15 16 31l82 84q15 14 29 14q13 0 31 -16l80 -86q12 -16 12 -29q0 -15 -14 -31l-80 -88q-20 -20 -29 -20q-16 0 -29 14l-88 101q-10 13 -10 26z" />
<glyph unicode="&#x202f;" horiz-adv-x="315" />
<glyph unicode="&#x2039;" horiz-adv-x="631" d="M174 479l342 303h14v-37l-205 -266l205 -266v-37h-14z" />
<glyph unicode="&#x203a;" horiz-adv-x="631" d="M101 176v37l205 266l-205 266v37h14l342 -303l-342 -303h-14z" />
<glyph unicode="&#x205f;" horiz-adv-x="394" />
<glyph unicode="&#x20ac;" d="M-44 653l17 60h87v29q0 16 1 31h-71l17 60h58q14 145 76 281q81 178 226 274t298 96q43 0 87 -8q40 -10 82 -29q8 -6 16 -6q20 0 34 45h41l84 -281l-40 -1q-49 134 -138 178q-43 22 -81 32v3q-50 16 -101 16q-17 0 -34 -2q-120 -12 -226 -113.5t-157 -273.5 q-32 -104 -39 -211h706l-17 -60h-692q0 -30 2 -60h674l-17 -60h-652q17 -158 83 -298q74 -157 193 -236q102 -68 216 -69q186 3 256 91q74 91 74 185h48v-143q0 -70 -111 -127q-105 -54 -267 -56q-181 0 -325.5 98t-223.5 274q-62 135 -76 281h-108z" />
<glyph unicode="&#x2122;" horiz-adv-x="1497" />
<glyph unicode="&#xe000;" horiz-adv-x="1295" d="M0 0v1295h1295v-1295h-1295z" />
</font>
</defs>
</svg>
